<?xml version="1.0" standalone="no"?>
<!DOCTYPE svg PUBLIC "-//W3C//DTD SVG 20010904//EN"
 "http://www.w3.org/TR/2001/REC-SVG-20010904/DTD/svg10.dtd">
<svg version="1.0" xmlns="http://www.w3.org/2000/svg"
 width="1480.000000pt" height="1480.000000pt" viewBox="0 0 1480.000000 1480.000000"
 preserveAspectRatio="xMidYMid meet">
<metadata>
Created by potrace 1.14, written by Peter Selinger 2001-2017
</metadata>
<g transform="translate(0.000000,1480.000000) scale(0.100000,-0.100000)"
fill="#000000" stroke="none">
<path d="M7060 14794 c-25 -2 -115 -8 -200 -14 -942 -66 -1911 -331 -2765
-757 -1950 -974 -3362 -2741 -3884 -4862 -199 -807 -260 -1670 -176 -2506 184
-1830 1052 -3538 2423 -4768 1137 -1020 2579 -1668 4097 -1842 270 -30 370
-36 720 -42 472 -7 783 12 1200 73 2375 350 4424 1819 5511 3949 192 377 302
637 430 1020 246 736 365 1432 381 2215 40 2054 -769 4018 -2248 5455 -1269
1233 -2942 1967 -4724 2074 -134 8 -671 11 -765 5z"/>
</g>
</svg>
